<svg width="123" height="16" viewBox="0 0 123 16" fill="none" xmlns="http://www.w3.org/2000/svg">
<path d="M76.9261 1.14233C77.5557 -0.00079453 79.0439 -0.1402 80.2172 0.138611C80.9041 0.278016 81.362 0.835637 81.6768 1.39326C84.2238 5.93787 86.7994 10.4267 89.3465 14.9713C87.8297 14.9713 86.2843 15.0271 84.7389 14.9434C84.4241 14.1628 83.8804 13.4936 83.5656 12.713C81.1902 12.6572 78.7863 12.713 76.411 12.6851C76.9261 11.5698 77.5271 10.4825 78.1853 9.423C79.3873 9.423 80.5606 9.45088 81.7626 9.423C80.9613 7.91742 80.0741 6.46761 79.3587 4.93415C79.2728 4.93415 79.187 4.93415 79.1011 4.93415C78.958 5.43601 78.6718 5.88211 78.4143 6.3282C76.8975 9.14419 75.3521 11.9602 73.8067 14.7762C73.7209 15.0271 73.4347 14.9434 73.2343 14.9713C71.8607 14.9434 70.487 14.9992 69.1133 14.9434C71.689 10.3431 74.2932 5.7427 76.9261 1.14233Z" fill="url(#paint0_linear_261_142)"/>
<path d="M117.822 0.0270865C119.195 0.0270865 120.569 0.0270865 121.971 0.0270865C122.057 5.01779 121.971 10.0085 122 14.9992C120.598 14.9992 119.195 15.0271 117.822 14.9992C117.822 9.98062 117.764 5.01779 117.822 0.0270865Z" fill="url(#paint1_linear_261_142)"/>
<path d="M0 0.138611C1.4023 0.138611 2.8046 0.11073 4.17828 0.166492C4.17828 5.10144 4.17828 10.0364 4.17828 14.9713C2.77598 15.0271 1.37368 14.9713 0 14.9992C0 10.0364 0 5.07356 0 0.138611Z" fill="url(#paint2_linear_261_142)"/>
<path d="M6.72531 1.61631C6.66807 0.91928 7.1832 0.250135 7.89866 0.166492C8.69998 0.0828486 9.50129 0.11073 10.3312 0.138611C10.9322 0.138611 11.4187 0.473183 11.8194 0.891399C12.6207 1.69995 13.4506 2.45274 14.1661 3.34493C14.9388 4.18136 15.7687 4.93415 16.5128 5.77058C17.2855 6.7743 18.3157 7.52709 19.0884 8.5308C19.1743 8.55869 19.2601 8.55869 19.3746 8.58657C19.3746 5.77058 19.3746 2.9546 19.3746 0.138611C20.6624 0.138611 21.9503 0.138611 23.2667 0.138611C23.2667 4.73898 23.2953 9.33935 23.2667 13.9397C23.324 14.581 22.6657 14.9992 22.0647 14.9992C21.4351 14.9992 20.8055 15.055 20.1759 14.9434C19.5177 14.7483 19.0026 14.2743 18.5733 13.7446C17.8006 12.7966 16.8562 11.9881 16.0549 11.068C15.2822 10.0921 14.3092 9.28359 13.4792 8.33564C12.7924 7.47132 11.9339 6.74642 11.2184 5.93787C11.1039 5.79846 10.9894 5.71482 10.8177 5.63118C10.7891 8.75385 10.8177 11.8486 10.8177 14.9713C9.47267 14.9713 8.12761 14.9713 6.78255 14.9713C6.69669 10.5382 6.72531 6.07727 6.72531 1.61631Z" fill="url(#paint3_linear_261_142)"/>
<path d="M25.871 0.138611C29.1907 0.138611 32.5104 0.11073 35.8016 0.166492C37.2038 0.278016 38.6348 0.751994 39.7223 1.61631C41.4394 2.78731 42.5555 4.76686 42.6413 6.80218C42.9275 7.61073 42.5555 8.41928 42.5555 9.22783C42.2693 10.6219 41.4966 11.9044 40.495 12.936C38.7492 14.4695 36.3453 15.1386 34.0272 14.9713C31.3085 14.9713 28.5897 14.9713 25.871 14.9713C25.8424 10.0364 25.871 5.07356 25.871 0.138611ZM29.9348 4.04196C29.9348 6.38396 29.9348 8.72597 29.9348 11.068C31.7091 11.0959 33.4835 11.0959 35.2864 11.068C36.1164 11.0959 36.8318 10.6498 37.4614 10.1758C38.8923 8.8375 38.9782 6.27244 37.4614 4.93415C36.889 4.37653 36.1164 3.98619 35.2864 4.01408C33.5121 4.04196 31.7091 4.01408 29.9348 4.04196Z" fill="url(#paint4_linear_261_142)"/>
<path d="M44.8163 0.138611C46.1614 0.138611 47.5351 0.138611 48.8801 0.138611C48.8801 5.07356 48.8801 10.0364 48.8801 14.9713C47.5351 14.9713 46.1614 14.9713 44.8163 14.9713C44.8163 10.0364 44.8163 5.07356 44.8163 0.138611Z" fill="url(#paint5_linear_261_142)"/>
<path d="M51.4272 0.138611C52.8295 0.0828486 54.2318 0.11073 55.6054 0.11073C55.6054 5.04567 55.6054 10.0085 55.6054 14.9434C54.2031 14.9434 52.8008 14.9713 51.4272 14.9156C51.4272 10.0364 51.4272 5.10144 51.4272 0.138611Z" fill="url(#paint6_linear_261_142)"/>
<path d="M62.76 0.361659C62.989 0.0549675 63.4183 0.138611 63.7331 0.138611C65.2498 0.166492 66.7952 0.11073 68.312 0.166492C68.1689 0.38954 67.9972 0.584707 67.7969 0.751994C65.536 2.92671 63.3324 5.12932 61.0715 7.27616C61.6725 7.88954 62.3308 8.44716 62.8745 9.14419C64.4199 10.6498 65.9367 12.1832 67.4821 13.6888C67.8827 14.1349 68.3692 14.4973 68.7413 14.9713C66.9383 14.9992 65.1354 14.9992 63.3324 14.9713C61.9587 13.6888 60.6423 12.3226 59.2686 11.0122C58.3814 10.0364 57.2367 9.22783 56.5785 8.08471C56.3209 7.30404 56.4926 6.35608 57.1508 5.79846C59.011 3.95831 60.8998 2.17393 62.76 0.361659Z" fill="url(#paint7_linear_261_142)"/>
<path d="M104.6 0.38954C104.972 0.0828485 105.516 0.166492 105.974 0.138611C106.546 0.166492 107.147 0.0549676 107.662 0.305897C108.292 0.584707 108.578 1.22597 108.893 1.78359C111.125 5.71482 113.329 9.64605 115.561 13.5494C115.79 14.0513 116.162 14.4695 116.334 14.9992C114.788 14.9992 113.271 15.0828 111.726 14.9434C111.411 14.1628 110.953 13.4657 110.553 12.7408C108.149 12.713 105.773 12.7408 103.369 12.713C103.942 11.6256 104.543 10.5382 105.144 9.47876C106.346 9.47876 107.519 9.50664 108.721 9.47876C107.948 7.91742 107.033 6.43973 106.26 4.87839C104.342 8.16835 102.625 11.5698 100.765 14.8598C100.651 15.0828 100.365 15.0271 100.164 15.0271C98.7905 14.9992 97.4168 15.0828 96.0718 14.9713C98.6188 10.5661 101.08 6.10515 103.627 1.69995C103.856 1.19809 104.171 0.724113 104.6 0.38954Z" fill="url(#paint8_linear_261_142)"/>
<defs>
<linearGradient id="paint0_linear_261_142" x1="124.5" y1="7.99999" x2="-4" y2="7.99997" gradientUnits="userSpaceOnUse">
<stop stop-color="#1967D2"/>
<stop offset="1" stop-color="#19BCD2"/>
</linearGradient>
<linearGradient id="paint1_linear_261_142" x1="124.5" y1="7.99999" x2="-4" y2="7.99997" gradientUnits="userSpaceOnUse">
<stop stop-color="#1967D2"/>
<stop offset="1" stop-color="#19BCD2"/>
</linearGradient>
<linearGradient id="paint2_linear_261_142" x1="124.5" y1="7.99999" x2="-4" y2="7.99997" gradientUnits="userSpaceOnUse">
<stop stop-color="#1967D2"/>
<stop offset="1" stop-color="#19BCD2"/>
</linearGradient>
<linearGradient id="paint3_linear_261_142" x1="124.5" y1="7.99999" x2="-4" y2="7.99997" gradientUnits="userSpaceOnUse">
<stop stop-color="#1967D2"/>
<stop offset="1" stop-color="#19BCD2"/>
</linearGradient>
<linearGradient id="paint4_linear_261_142" x1="124.5" y1="7.99999" x2="-4" y2="7.99997" gradientUnits="userSpaceOnUse">
<stop stop-color="#1967D2"/>
<stop offset="1" stop-color="#19BCD2"/>
</linearGradient>
<linearGradient id="paint5_linear_261_142" x1="124.5" y1="7.99999" x2="-4" y2="7.99997" gradientUnits="userSpaceOnUse">
<stop stop-color="#1967D2"/>
<stop offset="1" stop-color="#19BCD2"/>
</linearGradient>
<linearGradient id="paint6_linear_261_142" x1="124.5" y1="7.99999" x2="-4" y2="7.99997" gradientUnits="userSpaceOnUse">
<stop stop-color="#1967D2"/>
<stop offset="1" stop-color="#19BCD2"/>
</linearGradient>
<linearGradient id="paint7_linear_261_142" x1="124.5" y1="7.99999" x2="-4" y2="7.99997" gradientUnits="userSpaceOnUse">
<stop stop-color="#1967D2"/>
<stop offset="1" stop-color="#19BCD2"/>
</linearGradient>
<linearGradient id="paint8_linear_261_142" x1="124.5" y1="7.99999" x2="-4" y2="7.99997" gradientUnits="userSpaceOnUse">
<stop stop-color="#1967D2"/>
<stop offset="1" stop-color="#19BCD2"/>
</linearGradient>
</defs>
</svg>
